#!OML:ASF F:\VICON\USERDATA\INSTALL\rory3\rory3.ASF
:FULLY-SPECIFIED
:DEGREES
365
root 0.460727 17.7747 -19.2424 -1.74582 2.16867 -0.947626
lowerback 8.90401 0.279761 -0.813274
upperback 0.394743 0.418153 2.6561
thorax -4.61329 0.252266 3.17278
lowerneck -15.0326 -4.68161 -9.41299
upperneck 12.8674 -5.42023 6.9933
head 6.84696 -2.49162 3.23223
rclavicle 9.74045e-015 -2.14687e-014
rhumerus -29.4636 -8.99669 -78.8473
rradius 32.9125
rwrist 5.8563
rhand -13.4014 10.1897
rfingers 7.12502
rthumb 12.7063 -19.4038
lclavicle 9.74045e-015 -2.14687e-014
lhumerus -32.6658 8.57768 85.3157
lradius 28.6541
lwrist -2.56959
lhand -20.8044 18.8227
lfingers 7.12502
lthumb 5.56324 48.7296
rfemur -9.59933 4.77056 21.3247
rtibia 22.2158
rfoot -21.6222 -17.8518
rtoes 5.11591
lfemur -12.1343 -6.85432 -16.663
ltibia 22.6193
lfoot -26.4084 7.02688
ltoes -9.13153
366
root 0.460719 17.7758 -19.2609 -1.71241 2.1697 -1.02558
lowerback 8.85782 0.257198 -0.794774
upperback 0.454448 0.392545 2.73934
thorax -4.52404 0.238585 3.25222
lowerneck -15.348 -4.6465 -9.46001
upperneck 13.1235 -5.33742 6.95529
head 6.97655 -2.45206 3.23364
rclavicle -1.49089e-016 1.59028e-014
rhumerus -29.2305 -8.97895 -78.8277
rradius 32.5689
rwrist 5.90782
rhand -13.4989 10.317
rfingers 7.12502
rthumb 12.6123 -19.2823
lclavicle -1.49089e-016 1.59028e-014
lhumerus -32.4861 8.66438 85.3608
lradius 28.7883
lwrist -2.62038
lhand -20.7775 18.4348
lfingers 7.12502
lthumb 5.58915 48.3411
rfemur -9.70702 4.83879 21.4089
rtibia 22.2397
rfoot -21.5505 -17.7923
rtoes 5.59757
lfemur -12.2643 -6.84722 -16.5669
ltibia 22.5899
lfoot -26.2702 6.99921
ltoes -9.81688
367
root 0.462758 17.78 -19.2726 -1.69901 2.34422 -1.02177
lowerback 8.82214 0.158915 -0.83256
upperback 0.41525 0.261683 2.8079
thorax -4.53732 0.175818 3.36223
lowerneck -15.379 -4.57393 -9.48282
upperneck 13.309 -5.22185 6.8574
head 7.02985 -2.4064 3.21874
rclavicle -8.74653e-015 1.51076e-014
rhumerus -29.3657 -8.85419 -78.8009
rradius 32.4934
rwrist 5.99841
rhand -13.7804 10.4429
rfingers 7.12502
rthumb 12.3409 -19.1729
lclavicle -8.74653e-015 1.51076e-014
lhumerus -32.6418 8.74711 85.406
lradius 29.1546
lwrist -2.67487
lhand -20.5147 18.9309
lfingers 7.12502
lthumb 5.84292 48.8304
rfemur -9.73669 4.67584 21.3922
rtibia 22.2695
rfoot -21.6254 -17.7378
rtoes 6.09532
lfemur -12.327 -6.96299 -16.5895
ltibia 22.5416
lfoot -26.2015 6.93552
ltoes -10.2242
368
root 0.465018 17.7788 -19.2824 -1.73886 2.49745 -0.90187
lowerback 8.90735 0.101361 -0.938245
upperback 0.372118 0.174412 2.78115
thorax -4.62473 0.136 3.40622
lowerneck -15.3692 -4.55783 -9.459
upperneck 13.4363 -5.21042 6.84852
head 7.06752 -2.40121 3.21398
rclavicle 1.21507e-014 1.90833e-014
rhumerus -29.5304 -8.91747 -78.8045
rradius 32.4694
rwrist 6.11763
rhand -13.7653 10.2691
rfingers 7.12502
rthumb 12.3554 -19.3458
lclavicle 1.21507e-014 1.90833e-014
lhumerus -32.649 8.72691 85.416
lradius 29.3063
lwrist -2.74124
lhand -20.3991 19.9301
lfingers 7.12502
lthumb 5.95454 49.8264
rfemur -9.73553 4.59204 21.252
rtibia 22.2834
rfoot -21.4458 -17.9746
rtoes 5.67864
lfemur -12.3048 -7.05804 -16.7519
ltibia 22.4835
lfoot -26.5239 6.77252
ltoes -9.33494
369
root 0.466422 17.7795 -19.2952 -1.73468 2.5485 -0.821295
lowerback 8.9414 0.112691 -0.976086
upperback 0.384095 0.18286 2.7245
thorax -4.63174 0.140344 3.36731
lowerneck -15.4559 -4.56019 -9.38787
upperneck 13.4965 -5.23096 6.88607
head 7.1027 -2.40262 3.2117
rclavicle 4.84538e-015 -2.38542e-015
rhumerus -29.5121 -9.22566 -78.8277
rradius 32.368
rwrist 6.11714
rhand -13.5794 10.1887
rfingers 7.12502
rthumb 12.5346 -19.4153
lclavicle 4.84538e-015 -2.38542e-015
lhumerus -32.566 8.56726 85.3925
lradius 29.3389
lwrist -2.70516
lhand -20.4776 19.9391
lfingers 7.12502
lthumb 5.87872 49.8375
rfemur -9.77019 4.64804 21.1581
rtibia 22.2676
rfoot -21.2066 -18.2025
rtoes 5.88612
lfemur -12.3216 -7.03552 -16.8546
ltibia 22.4108
lfoot -26.8789 6.58284
ltoes -9.16719
